name processed_emg_signals
nRows=99
nColumns=7
 
endheader
time	RGLTMED	RRF	RADDLONG	RST	RTA	RGM
0.0	0.0520113718251379	0.0402681903349285	0.0411777367044794	0.007209977090604	0.0071147875631401	0.0166894087495784
0.001	0.058029077792271	0.0452391622446079	0.0469141499660141	0.0088077572928876	0.0109874382458382	0.0157385487987369
0.002	0.064218839074773	0.0502550890668079	0.0526908275147587	0.0103997872848798	0.0148523221914503	0.0147916829571403
0.003	0.0705799151804912	0.0553134092345061	0.0585046678308028	0.0119849701514492	0.0187073541311643	0.0138489536169132
0.004	0.0771113949478277	0.0604115010698249	0.0643525219337215	0.0135622122103583	0.02255047753217	0.0129104765361948
0.005	0.0838121950605525	0.0655466853050225	0.0702311972145512	0.0151304245241158	0.0263796681469581	0.0119763400425551
0.006	0.0906810587644554	0.0707162276966608	0.0761374613295595	0.0166885244104662	0.0301929374891017	0.0110466042862722
0.007	0.0977165547901216	0.0759173417291109	0.082068046146392	0.0182354369482513	0.0339883362239417	0.0101213005462743
0.008	0.1049170764860816	0.0811471914034522	0.0880196517332454	0.0197700964756561	0.0377639574627951	0.0092004305914185
0.009000000000000001	0.1122808411663731	0.0864028941079336	0.0939889503820148	0.0212914480777624	0.0415179399495353	0.0082839660995728
0.01	0.1198058896763461	0.0916815235661803	0.0999725906574094	0.0227984490605177	0.045248471128895	0.0073718481368078
0.011	0.1274900861802977	0.0969801128594837	0.1059672014636034	0.0242900704081902	0.0489537900866048	0.0064639866988315
0.012	0.1353311181744021	0.1022956575194924	0.1119693961206426	0.0257652982215317	0.0526321903521259	0.00556026031669
0.013000000000000001	0.1433264967281597	0.107625118687718	0.1179757764431538	0.0272231351339373	0.0562820225554794	0.0046605157285922
0.014	0.1514735569573786	0.1129654263380758	0.1239829368141084	0.0286626017029618	0.0599016969299627	0.0037645676196275
0.015	0.1597694587314329	0.1183134825586918	0.1299874682473185	0.0300827377745684	0.0634896856531608	0.0028721984309588
0.016	0.168211187617143	0.1236661648889928	0.1359859624331172	0.0314826038176662	0.0670445250191963	0.0019831582398521
0.017	0.1767955560612097	0.1290203297079864	0.1419750157623609	0.0328612822264672	0.0705648174362504	0.0010971647116409
0.018000000000000002	0.185519204812517	0.1343728156694792	0.147951233323999	0.0342178785883522	0.0740492332445633	0.0002139031244169
0.019	0.194378604585293	0.1397204471798967	0.1539112328721666	0.0355515229151352	0.0774965123514599	0.0006669735330766
0.02	0.2033700579633572	0.1450600379142851	0.1598516487584861	0.0368613708357286	0.0809054656814882	0.001545844390228
0.021	0.2124897015453965	0.1503883943661318	0.1657691358256727	0.03814660474853	0.0842749764413062	0.0024231204501627
0.022	0.2217335083305573	0.155702319426464	0.1716603732581654	0.0394064349320705	0.0876040012005228	0.0032992442726544
0.023	0.2310972903431583	0.1609986159878184	0.1775220683852263	0.0406401006125675	0.0908915707910337	0.0041746895850122
0.024	0.2405767014948968	0.1662740905682755	0.1833509604321027	0.0418468709872121	0.0941367910283806	0.0050499608219206
0.025	0.250167240682232	0.1715255569507585	0.1891438242140274	0.043026046202103	0.097338843259375	0.0059255925952902
0.026000000000000002	0.2598642551162122	0.1767498398323231	0.1948974737681363	0.0441769582838734	0.1004969847405813	0.0068021490954682
0.027	0.2696629438811654	0.1819437784779283	0.2006087659176758	0.0452989720241896	0.1036105488524902	0.0076802234252275
0.028	0.2795583617181181	0.1871042303727272	0.2062746037626718	0.0463914858163911	0.1066789451544922	0.0085604368681834
0.029	0.2895454230278869	0.1922280748664911	0.2118919400909435	0.047453932443686	0.1097016592858277	0.0094434380932981
0.03	0.2996189060882959	0.1973122168035014	0.2174577807031166	0.0484857798182901	0.1126782527179565	0.0103299022973192
0.031	0.3097734574792625	0.2023535901307067	0.222969187645217	0.0494865316711278	0.1156083623635858	0.0112205302870192
0.032	0.3200035967089878	0.2073491614764921	0.2284232823427139	0.0504557281918601	0.1184917000477644	0.0121160475032758
0.033	0.3303037210339575	0.2122959336917908	0.2338172486305627	0.0513929466191423	0.121328051846106	0.0130172029890977
0.034	0.3406681104648038	0.2171909493447435	0.239148335673897	0.0522978017810926	0.124117277295169	0.013924768303921
0.035	0.3510909329497775	0.2220312941597353	0.244413860774952	0.0531699465860068	0.1268593084796072	0.0148395363865659
0.036000000000000004	0.3615662497270822	0.2268141003915845	0.2496112120617379	0.0540090724633282	0.1295541490004891	0.0157623203693778
0.037	0.3720880208370172	0.2315365501259848	0.254737851054447	0.0548149097547715	0.132201872828885	0.0166939523461678
0.038	0.3826501107844993	0.2361958784980174	0.2597913151060967	0.0555872280556396	0.1348026230485036	0.0176352820965805
0.039	0.3932462943421412	0.2407893768217567	0.2647692197143479	0.0563258365061206	0.1373566104908854	0.0185871757695602
0.04	0.4038702624839084	0.2453143956251822	0.2696692607024354	0.0570305840324599	0.1398641122664779	0.0195505145285836
0.041	0.4145156284392421	0.2497683475862956	0.2744892162682534	0.0577013595377333	0.1423254701945525	0.0205261931613109
0.042	0.4251759338572468	0.2541487103673803	0.2792269489010668	0.0583380920421106	0.1447410891349425	0.0215151186562709
0.043000000000000003	0.4358446550700597	0.2584530293454586	0.2838804071659882	0.0589407507723946	0.1471114352244446	0.0225182087491717
0.044	0.4465152094442435	0.2626789202377834	0.2884476273565965	0.0595093452010006	0.1494370340209005	0.0235363904413824
0.045	0.4571809618090601	0.266824071621696	0.2929267350165293	0.060043925034604	0.1517184685581075	0.0245705984930985
0.046	0.4678352309506976	0.2708862473487712	0.2973159463317729	0.060544580153013	0.1539563773147627	0.0256217738936667
0.047	0.4784712961619058	0.2748632888533197	0.3016135693967589	0.0610114404991	0.1561514521008664	0.0266908623115537
0.048	0.4890824038368117	0.2787531173557043	0.3058180053576417	0.0614446759207514	0.1583044358650244	0.0277788125264198
0.049	0.4996617741014082	0.2825537359608074	0.3099277494373643	0.0618444959659678	0.1604161204263128	0.028886574845728
0.05	0.5102026074712074	0.2862632316519464	0.3139413918468776	0.0622111496323955	0.162487344134155	0.0300150995082728
0.051000000000000004	0.5206980915282781	0.2898797771799556	0.3178576185871885	0.06254492507248	0.1645189894600128	0.0311653350769707
0.052000000000000005	0.5311414076106732	0.2934016328464452	0.3216752121461452	0.0628461492555601	0.1665119805246077	0.0323382268231878
0.053	0.5415257375078415	0.2968271481796046	0.3253930520941453	0.0631151875880562	0.168467280564895	0.0335347151048419
0.054	0.5518442701563148	0.3001547635002223	0.3290101155824619	0.06335244349295	0.1703858893450873	0.034755733740518
0.055	0.5620902083302479	0.3033830113752298	0.3325254777480566	0.0635583579495245	0.1722688405163268	0.0360022083817546
0.056	0.5722567753213272	0.3065105179553052	0.3359383120286394	0.063733408994312	0.1741171989298535	0.0372750548856223
0.057	0.5823372216022562	0.3095360041925912	0.339247890391441	0.0638781111840096	0.1759320579088625	0.0385751776896786
0.058	0.5923248314675964	0.3124582869340085	0.3424535834786394	0.0639930150210713	0.177714536484458	0.0399034681912006
0.059000000000000004	0.602212929644992	0.3152762798851434	0.3455548606719739	0.0640787063425475	0.1794657766014256	0.041260803132597
0.06	0.6119948878689907	0.3179889944394816	0.3485512900782804	0.0641358056728035	0.1811869402997492	0.0426480429947033
0.061	0.6216641314087278	0.3205955403675138	0.3514425384369976	0.0641649675406917	0.1828792068779531	0.0440660303995872
0.062	0.6312141455402456	0.3230951263599076	0.3542283709498525	0.0641668797620794	0.184543770044364	0.0455155885243723
0.063	0.6406384819533929	0.3254870604188665	0.356908651032163	0.0641422626886832	0.1861818350622308	0.0469975195274886
0.064	0.6499307650824858	0.3277707500921306	0.3594833399843709	0.0640918684244809	0.1877946158947694	0.0485126029886896
0.065	0.659084698348616	0.3299457025450805	0.3619524965817161	0.0640164800111892	0.1893833323561516	0.0500615943640537
0.066	0.6680940703002545	0.332011524467368	0.3643162765797615	0.0639169105843509	0.1909492072746151	0.0516452234571465
0.067	0.6769527606375677	0.3339679218114356	0.366574932133087	0.0637940025018919	0.1924934636737812	0.0532641929074169
0.068	0.6856547461050609	0.3358146993607693	0.3687288111251631	0.0636486264468698	0.1940173219782175	0.0549191766968447
0.069	0.694194106237195	0.3375517601259313	0.3707783564073412	0.0634816805063352	0.1955219972492467	0.0566108186758867
0.07	0.7025650289428658	0.3391791045665819	0.3727241049461536	0.0632940892279874	0.1970086964569623	0.058339731109637
0.07100000000000001	0.7107618159164717	0.3406968296378865	0.3745666868783322	0.0630868026563468	0.1984786157945269	0.060106493245171
0.07200000000000001	0.7187788878655524	0.3421051276597452	0.3763068244735333	0.0628607953498267	0.1999329380407895	0.0619116499008633
0.073	0.7266107895473504	0.3434042850073847	0.3779453310046799	0.0626170653800353	0.201372829976896	0.063755710078436
0.074	0.7342521946086187	0.3445946806215748	0.3794831095261242	0.0623566333144166	0.2027994398623708	0.0656391455982946
0.075	0.7416979102246777	0.3456767843366663	0.3809211515598046	0.0620805411830872	0.2042138949755003	0.0675623897585174
0.076	0.7489428815343983	0.3466511550249648	0.3822605356909468	0.0617898514306619	0.2056172992227437	0.0695258360177422
0.077	0.7559821958685405	0.3475184385569749	0.3835024260758522	0.0614856458537146	0.2070107308216503	0.0715298367020045
0.078	0.7628110867700059	0.3482793655786147	0.3846480708662403	0.0611690245244211	0.208395240061687	0.073574701735467
0.079	0.7694249378060001	0.3489347491088099	0.3856988005555098	0.0608411047009727	0.2097718471472936	0.0756606973949904
0.08	0.7758192861737575	0.3494854819635612	0.3866560262530599	0.0605030197252965	0.2111415401270914	0.077788045088545
0.081	0.7819898261032523	0.349932534015257	0.3875212378924876	0.0601559179085181	0.2125052729129203	0.0799569201576278
0.082	0.7879324120625826	0.3502769492985894	0.3882960023799046	0.0598009614044561	0.213863963391964	0.0821674507041662
0.083	0.7936430617741608	0.3505198429763374	0.3889819616880891	0.0594393250713915	0.2152184916350467	0.0844197164426396
0.084	0.7991179590521829	0.3506623981800355	0.3895808309025389	0.0590721953221598	0.2165696982035078	0.0867137475784392
0.085	0.80435345647351	0.3507058627416271	0.3900943962256711	0.0587007689626764	0.2179183825568537	0.0890495237136888
0.08600000000000001	0.8093460778954319	0.3506515458332533	0.3905245129458624	0.0583262520189578	0.2192653015626208	0.0914269727819372
0.08700000000000001	0.8140925208341774	0.3505008145326775	0.3908731033795525	0.0579498585527319	0.2206111681097936	0.0938459700132717
0.088	0.8185896587173767	0.3502550903318274	0.3911421547944912	0.0575728094658274	0.2219566498266551	0.0963063369315533
0.089	0.8228345430224292	0.3499158456058542	0.391333717323065	0.0571963312934594	0.2233023679037996	0.0988078403855067
0.09	0.8268244053110275	0.3494846000596803	0.3914499018732077	0.0568216549865368	0.2246488960231225	0.1013501916153667
0.091	0.830556659168409	0.3489629171683875	0.3914928780440572	0.0564500146830942	0.225996759393676	0.1039330453567412
0.092	0.8340289020542458	0.3483524006271344	0.3914648720524111	0.0560826464688068	0.2273464338957106	0.1065559989831082
0.093	0.8372389170701513	0.3476546908253962	0.3913681646747927	0.0557207871266828	0.2286983453344254	0.1092185916882404
0.094	0.840184674646937	0.3468714613596903	0.3912050892089013	0.0553656728758102	0.2300528688050745	0.1119203037097191
0.095	0.8428643341526568	0.3460044155981332	0.3909780294574316	0.0550185380992094	0.2314103281711159	0.114660555594654
0.096	0.845276245420517	0.3450552833093397	0.3906894177364643	0.0546806140607049	0.2327709956570476	0.1174387075090104
0.097	0.8474189501937066	0.3440258173675117	0.3903417329106438	0.0543531276109651	0.2341350915573234	0.120254058592117
0.098	0.8492911834822677	0.3429177905445106	0.3899374984572321	0.0540372998829666	0.2355027840623016	0.1231058463581205
